<svg xmlns="http://www.w3.org/2000/svg" viewBox="0 0 457.87 367.78"><defs><style>.cls-1{fill:#ddd6ff;}.cls-2,.cls-21,.cls-3{fill:#8982bc;}.cls-2{opacity:0.18;}.cls-4{fill:#eff3fb;}.cls-5{fill:#624fb5;}.cls-6{fill:#fff;}.cls-7{font-size:6.57px;fill:#4d7eb7;font-family:Gilroy-Light, Gilroy Light;font-weight:300;letter-spacing:-0.07em;}.cls-8{letter-spacing:0em;}.cls-9{letter-spacing:0.01em;}.cls-10{letter-spacing:0em;}.cls-11{fill:#fc846d;}.cls-12{fill:#f9d452;}.cls-13{fill:#57be8b;}.cls-14{fill:#c4b9ff;}.cls-15{fill:#fe9887;}.cls-16{fill:#3f327a;}.cls-17{fill:#f7d3a9;}.cls-18{fill:#ffc359;}.cls-19{fill:#353e70;}.cls-20{fill:#d69e43;}.cls-21{opacity:0.25;}.cls-22{fill:#2c2656;}.cls-23{fill:#7fbbef;}.cls-24{fill:#ce6c5f;}.cls-25{fill:#453c87;}.cls-26{fill:#dba246;}.cls-27{fill:#d3ab84;}.cls-28{fill:#f4f3ff;}.cls-29{fill:#232049;}.cls-30{fill:#58bb85;}.cls-31{opacity:0.85;}.cls-32{fill:#fafafa;}.cls-33{fill:red;}</style></defs><title>Asset 18</title><g id="Layer_2" data-name="Layer 2"><g id="Objects"><polygon class="cls-1" points="101.43 65.75 101.43 320.33 371.93 320.33 371.93 74.17 101.43 65.75"/><polygon class="cls-2" points="173.81 253.05 169.76 322.08 305.58 319.92 173.81 253.05"/><polygon class="cls-3" points="175.61 321.85 173.81 253.05 303.33 245.89 305.58 319.92 175.61 321.85"/><polygon class="cls-2" points="220.27 154.44 221.79 218.66 355.48 217.58 349.3 142.5 220.27 154.44"/><polygon class="cls-4" points="100.12 80.59 371.93 82.51 371.93 71.48 100.12 65.21 100.12 80.59"/><polygon class="cls-5" points="100.12 80.59 100.12 102.94 371.93 102.94 371.93 82.51 100.12 80.59"/><circle class="cls-6" cx="126.64" cy="91.77" r="7.91" transform="translate(8.31 194.03) rotate(-76.76)"/><polyline class="cls-6" points="144.33 89.07 144.33 91.77 144.33 94.47 183.9 94.47 183.9 89.07"/><polygon class="cls-6" points="205.98 85.33 205.98 99.68 306.24 99.68 306.24 86.48 205.98 85.33"/><text class="cls-7" transform="translate(212.66 95.39)">T<tspan class="cls-8" x="2.8" y="0">e</tspan><tspan class="cls-9" x="6.07" y="0">x</tspan><tspan class="cls-10" x="9.2" y="0">t</tspan></text><circle class="cls-11" cx="109.32" cy="73.86" r="1.65"/><circle class="cls-12" cx="117.13" cy="73.86" r="1.65"/><path class="cls-13" d="M126.64,73.86A1.65,1.65,0,1,1,125,72.21,1.65,1.65,0,0,1,126.64,73.86Z"/><rect class="cls-14" x="123.17" y="120.65" width="3.62" height="45.61"/><polygon class="cls-3" points="134.55 123.95 134.55 127.78 183.9 127.78 184.51 123.44 134.55 123.95"/><polygon class="cls-3" points="217.92 118.92 217.92 122.75 355.63 122.75 357.34 118.41 217.92 118.92"/><polygon class="cls-3" points="217.92 222.4 217.92 226.23 355.63 226.23 357.34 221.89 217.92 222.4"/><polygon class="cls-3" points="217.92 132.01 217.92 135.84 270.32 135.84 270.97 131.5 217.92 132.01"/><polygon class="cls-3" points="217.92 235.66 217.92 239.49 270.32 239.49 270.97 235.15 217.92 235.66"/><polygon class="cls-3" points="134.98 135.84 134.98 139.67 184.33 139.67 184.51 136.18 134.98 135.84"/><polygon class="cls-3" points="134.76 148.46 134.76 152.29 184.11 152.29 184.3 148.8 134.76 148.46"/><polygon class="cls-3" points="134.76 162.43 134.76 166.25 184.11 166.25 184.3 162.77 134.76 162.43"/><polygon class="cls-15" points="220.27 150.86 225.86 218.81 355 208.18 349.3 138.91 220.27 150.86"/><polygon class="cls-1" points="366.28 300.12 367.86 302.67 369.85 301.73 368.06 298.94 366.28 300.12"/><path class="cls-16" d="M375.4,309s-8.86-2.09-10.27-1,10.35,2.63,10.35,2.63Z"/><path class="cls-17" d="M342.19,208s.07-4.45-.19-4.53c-.76-.23-.93,2.06-.93,2.06s-1.37-4.41-2-4.21c-.4.13.13,2.66.13,2.66s-1.14-2-1.7-1.91.6,2.85.6,2.85-1-1.31-1.49-1.15c-.35.11,3.19,6.14,3.19,6.14Z"/><path class="cls-16" d="M361,242.26s-14.12,17.09-7.06,37.16,11.84,22.19,11.84,22.19l4.09-2.14s-7.86-18.8-8.2-25.64c-.31-6.23,10.55-20.8,10.55-20.8L370,308.37l5.2.67s13.91-62,12.42-66.78S379.94,230.37,361,242.26Z"/><path class="cls-18" d="M357.93,218.85,361,242.26l25.26-3L376,202.74,368.42,204l-5.4.63c-3.08.36-5,.91-7.22,3.06L347,217.72l-4.37-10.49-3.84,1.92s3.14,19.11,8.09,17.15C350.26,225,357.93,218.85,357.93,218.85Z"/><path class="cls-18" d="M353.56,173.51s5.58,14.13,6.32,16.35S376,202.74,376,202.74l-7.59,3.47-14.86-13.77-3.34-18.93Z"/><path class="cls-17" d="M359.41,188.39l-2.14,7.38a3.09,3.09,0,0,0,2.11,3.83l1,.27v5.27h4.48a2.86,2.86,0,0,0,2.86-2.86v-12Z"/><path class="cls-19" d="M363.66,200.33a4.25,4.25,0,0,1-2-3.19s3.13-.09,2.29-2.26c-.52-1.35-2.31-.28-2.31-.28s.72-2.71.28-3.56c0,0-5.38,0-4.51-3.18a8.28,8.28,0,0,1,4.88-1.54c3.38-.19,5.24,5.52,5.24,5.52L364.67,200A.66.66,0,0,1,363.66,200.33Z"/><path class="cls-17" d="M350.32,173.51s-2.82-3.45-2.66-3.67c.45-.65,2,1,2,1s-1.68-4.31-1.05-4.55c.39-.15,1.55,2.17,1.55,2.17s-.38-2.31.14-2.56,1.31,2.61,1.31,2.61-.05-1.64.45-1.83,1.31,6.79,1.31,6.79Z"/><path class="cls-20" d="M363.63,214.77a8.56,8.56,0,0,1-.88.65c-.53.41-1.28,1-2.13,1.58a19.28,19.28,0,0,1-3.17,2,17.22,17.22,0,0,1,2.94-2.34c.85-.6,1.62-1.13,2.21-1.49S363.62,214.72,363.63,214.77Z"/><path class="cls-20" d="M367.76,200.49s.05,0,.11,0a.5.5,0,0,1,.16.3A4.3,4.3,0,0,1,368,202a4.62,4.62,0,0,1-.58,1.59,3.06,3.06,0,0,1-.67.78,3.15,3.15,0,0,1-1,.53,12.28,12.28,0,0,1-3.66.54,4.07,4.07,0,0,1-1.51-.16,8.88,8.88,0,0,1,1.5-.11,15.7,15.7,0,0,0,3.54-.64,2.76,2.76,0,0,0,1.46-1.13,4.74,4.74,0,0,0,.62-1.46,5.8,5.8,0,0,0,.18-1.06A.53.53,0,0,0,367.76,200.49Z"/><path class="cls-20" d="M346.71,221s.07.11.11.29h-.21a8.53,8.53,0,0,1-.07-1.74,4.53,4.53,0,0,1,.38-2,7,7,0,0,1,0,2c0,.74-.07,1.37-.11,1.72h-.21C346.64,221.14,346.68,221,346.71,221Z"/><path class="cls-20" d="M347.58,220.21c-.11,0-.33-.66-.5-1.51a3.38,3.38,0,0,1-.1-1.6,3.55,3.55,0,0,1,.49,1.52C347.64,219.48,347.69,220.19,347.58,220.21Z"/><path class="cls-20" d="M342.94,208.24a6.6,6.6,0,0,1-2.05,1,6.8,6.8,0,0,1-2.19.63,6.87,6.87,0,0,1,2.05-1A6.73,6.73,0,0,1,342.94,208.24Z"/><path class="cls-20" d="M385.1,237a3.49,3.49,0,0,1-.84.53,13.62,13.62,0,0,1-2.53.94c-2.2.59-5.26,1.29-8.68,1.93-1.7.32-3.33.58-4.82.8s-2.83.41-4,.48a10,10,0,0,1-2.71-.17,2.9,2.9,0,0,1-.94-.31s.35.07,1,.16a11.17,11.17,0,0,0,2.66,0c1.12-.1,2.45-.32,3.93-.56s3.11-.51,4.81-.83c3.4-.63,6.47-1.29,8.68-1.81a17.13,17.13,0,0,0,2.54-.81A7.23,7.23,0,0,1,385.1,237Z"/><path class="cls-21" d="M363.42,214.6s-1.51,10.91-4.58,12.64l-1-8Z"/><path class="cls-19" d="M358.57,190.32a3.8,3.8,0,0,1-1.26-1.53A3.28,3.28,0,0,1,358,186c.7-.43,1.59-.05,2.4.07a14.83,14.83,0,0,0,3.66-.44c1.22-.13,2.71.27,3.09,1.44.07.25.14.55.38.62a.87.87,0,0,0,.32,0c.95-.09,1.62,1,1.56,2a16.11,16.11,0,0,1-.77,2.75c-.48,2,.37,4.3-.52,6.19-.7,1.49-2.91,2.8-4.44,1.73l1.95-8.6Z"/><path class="cls-16" d="M369.85,301.72s-8.32,3.69-8.8,5.39,9.84-4.16,9.84-4.16Z"/><path class="cls-22" d="M361.58,271.41a9.39,9.39,0,0,1-2.44,1.58,10,10,0,0,1-2.68,1.15,12.22,12.22,0,0,1,2.49-1.49A13.09,13.09,0,0,1,361.58,271.41Z"/><path class="cls-22" d="M361.48,273.83a11.69,11.69,0,0,1-1.77,1,12.39,12.39,0,0,1-1.76,1,3.7,3.7,0,0,1,1.56-1.37A3.63,3.63,0,0,1,361.48,273.83Z"/><path class="cls-22" d="M379.9,278.5a9.33,9.33,0,0,1-2.95-.61,9.21,9.21,0,0,1-2.76-1.2,16.8,16.8,0,0,1,2.88.82A16,16,0,0,1,379.9,278.5Z"/><path class="cls-22" d="M380.28,277.73a8.7,8.7,0,0,1-2.85-.87,8.59,8.59,0,0,1-2.6-1.46,16.41,16.41,0,0,1,2.75,1.1A16.14,16.14,0,0,1,380.28,277.73Z"/><path class="cls-22" d="M366.29,300.29c.09-.06.32.15.52.45s.27.61.18.67-.32-.15-.52-.46S366.2,300.35,366.29,300.29Z"/><path class="cls-22" d="M363.65,295.64c.09-.05.46.44.81,1.08s.56,1.21.47,1.27-.46-.43-.81-1.08S363.55,295.69,363.65,295.64Z"/><path class="cls-22" d="M361.32,290.83c.1,0,.43.46.74,1.13s.48,1.25.38,1.3-.42-.46-.73-1.13S361.23,290.87,361.32,290.83Z"/><path class="cls-22" d="M359.33,285.87c.1,0,.4.49.66,1.18s.4,1.28.29,1.32-.39-.49-.66-1.18S359.23,285.91,359.33,285.87Z"/><path class="cls-22" d="M357.67,280.79c.1,0,.36.52.58,1.22s.31,1.3.21,1.34-.37-.52-.58-1.22S357.57,280.82,357.67,280.79Z"/><path class="cls-22" d="M356.43,275.59c.1,0,.31.55.47,1.27s.19,1.32.08,1.35-.31-.54-.47-1.27S356.32,275.61,356.43,275.59Z"/><path class="cls-22" d="M355.87,270.28c.11,0,.24.59.28,1.32s0,1.34-.11,1.35-.23-.58-.28-1.32S355.76,270.29,355.87,270.28Z"/><path class="cls-22" d="M356.13,265c.1,0,.14.62.08,1.35s-.2,1.32-.31,1.31-.15-.61-.08-1.35S356,264.93,356.13,265Z"/><path class="cls-22" d="M357.14,259.7c.1,0,.05.63-.11,1.35s-.38,1.28-.49,1.26-.06-.62.11-1.35S357,259.68,357.14,259.7Z"/><path class="cls-22" d="M358.83,254.64c.1,0,0,.63-.28,1.32s-.55,1.22-.65,1.18,0-.62.28-1.32S358.73,254.59,358.83,254.64Z"/><path class="cls-22" d="M361.12,249.81c.1.05-.1.63-.43,1.28s-.69,1.15-.79,1.1.1-.62.44-1.28S361,249.76,361.12,249.81Z"/><path class="cls-22" d="M364,245.29c.09.06-.17.61-.58,1.22s-.82,1.06-.91,1,.17-.6.58-1.22S363.88,245.23,364,245.29Z"/><path class="cls-22" d="M366.42,242.14c.08.07,0,.36-.27.64s-.49.45-.57.38,0-.35.27-.63S366.34,242.07,366.42,242.14Z"/><path class="cls-3" d="M402.33,327.2c-.26.05-3.77-16.15-7.83-36.17s-7.13-36.32-6.87-36.38,3.77,16.14,7.83,36.18S402.6,327.14,402.33,327.2Z"/><path class="cls-3" d="M414.31,327.2c-.27.05-3.77-16.15-7.83-36.17s-7.13-36.32-6.87-36.38,3.77,16.14,7.83,36.18S414.57,327.14,414.31,327.2Z"/><rect class="cls-3" x="366.28" y="247.84" width="36.05" height="6.82"/><path class="cls-3" d="M382.5,251.26c.26.05-2.46,17.09-6.09,38.05s-6.78,37.93-7.05,37.89,2.46-17.08,6.09-38.05S382.23,251.22,382.5,251.26Z"/><path class="cls-3" d="M372.84,251.26c.27.05-2.45,17.09-6.08,38.05s-6.78,37.93-7.05,37.89,2.46-17.08,6.09-38.05S372.58,251.22,372.84,251.26Z"/><polygon class="cls-3" points="393.77 284.94 405.75 284.94 406.31 287.71 394.33 287.71 393.77 284.94"/><path class="cls-3" d="M370.89,319.62c0,.27-2.14.81-4.86,1.2s-4.95.5-5,.23,2.13-.8,4.85-1.2S370.85,319.35,370.89,319.62Z"/><path class="cls-3" d="M371.91,313.32c0,.27-2.13.8-4.85,1.2s-5,.5-5,.23,2.14-.81,4.86-1.2S371.87,313.05,371.91,313.32Z"/><path class="cls-3" d="M373,306c0,.27-2.13.81-4.85,1.2s-5,.5-5,.23,2.13-.8,4.85-1.2S373,305.72,373,306Z"/><path class="cls-3" d="M374.29,298.67c0,.26-2.14.8-4.85,1.2s-5,.5-5,.23,2.13-.81,4.85-1.2S374.25,298.4,374.29,298.67Z"/><path class="cls-3" d="M375.17,292.16c0,.27-2.13.81-4.85,1.2s-5,.5-5,.23,2.14-.8,4.86-1.2S375.14,291.89,375.17,292.16Z"/><path class="cls-3" d="M376.84,285.61c0,.27-2.14.8-4.86,1.2s-5,.5-5,.23,2.13-.81,4.85-1.2S376.8,285.34,376.84,285.61Z"/><path class="cls-3" d="M377.91,278.5c0,.26-2.13.8-4.85,1.2s-5,.5-5,.23,2.13-.81,4.85-1.2S377.88,278.23,377.91,278.5Z"/><path class="cls-3" d="M379.21,270.69c0,.27-2.13.81-4.85,1.21s-5,.49-5,.23,2.14-.81,4.86-1.2S379.17,270.43,379.21,270.69Z"/><path class="cls-3" d="M380.86,262c0,.27-2.14.8-4.86,1.2s-5,.5-5,.23,2.13-.81,4.85-1.2S380.82,261.69,380.86,262Z"/><path class="cls-17" d="M53.81,252.28s-1.62,4.74-.54,8.11,2.19,2.17,2.19,2.17a5.4,5.4,0,0,1-.58-3.22,6.74,6.74,0,0,1,.64-2.53l.9,4a10.71,10.71,0,0,0,.59-2c.25-1.23-.62-3.45-.39-4.58s.61-2.43.61-2.43Z"/><path class="cls-17" d="M119,190.07l.27-1.76s-1.82-4-1.26-4.84A18.92,18.92,0,0,1,120.4,181l1.14.17a18.57,18.57,0,0,1,2.21,3.51c.18.87-1,4-1.82,6.37Z"/><polygon class="cls-23" points="119.45 179.13 120.47 187.32 121.58 187.06 120.55 178.97 119.88 177.64 119.45 179.13"/><path class="cls-17" d="M119.23,182.09l1.17-1.1a2.2,2.2,0,0,1-.69,2.45Z"/><polygon class="cls-17" points="91.82 318.26 91.94 321.26 89.76 321.6 89.67 318.29 91.82 318.26"/><path class="cls-16" d="M89.76,321.6s9-1.62,10.31-.48-10.48,2.08-10.48,2.08Z"/><polygon class="cls-17" points="60.43 307.71 57.93 309.37 56.52 307.69 59.3 305.89 60.43 307.71"/><path class="cls-16" d="M56.52,307.68s6,6.82,5.76,8.56-7.22-7.87-7.22-7.87Z"/><path class="cls-5" d="M95.36,243.57s7.53,7,7.66,32.73-8.87,42.87-8.87,42.87H87.81s10.4-32.36-1.28-53.82a84,84,0,0,1-24.6,44.12l-5-5.31S72.19,285,72.31,261c0-4.75.82-7.15-.83-12.47Z"/><path class="cls-15" d="M91.1,214.56s19.7-5.32,24.71-19.08l2.81-6.26,3.76,1.25s-1,25.33-25.44,32.22l-.39,1.49a41.39,41.39,0,0,0-.18,20.21l2.47,5.12-26.32,6a63.75,63.75,0,0,1-.23-26.54s-5.74-1.27-15.35,25.64l-3.69-.74s5.32-36.14,24.4-41.14Z"/><path class="cls-17" d="M91.48,199.77,93,206.68a2.84,2.84,0,0,1-2.19,3.37l-.91.19-.34,4.84-6.74-.48,1-13.64Z"/><path class="cls-19" d="M86.09,210.83s2.66-1.17,2.76-3.18c0,0-3.51-2.16-2.32-3.09s3.06,1.34,3.06,1.34-1-3.11-.58-3.87c0,0,4.93.35,4.34-2.61A7.5,7.5,0,0,0,89,197.68c-3.09-.4-5.18,4.72-5.18,4.72Z"/><path class="cls-19" d="M88.19,197.93a3.91,3.91,0,0,0-2.62-.84,7.87,7.87,0,0,0-7.75,9.5,4.6,4.6,0,0,0,.56,1.5,6.24,6.24,0,0,0,3.51,2.12c1.16.39,3.19,1.1,4.21.44,0,0-1.55-4.81-.56-7.7A19.4,19.4,0,0,1,88.19,197.93Z"/><path class="cls-19" d="M78.51,203a4.44,4.44,0,0,0-6.1.84c-.88,1.2-1.14,2.87-2.33,3.77-1.4,1.06-3.37.56-5.13.44a9,9,0,0,0-8.06,3.72,6.8,6.8,0,0,0,.81,8.52,7.7,7.7,0,0,0,5.7,1.73,19,19,0,0,0,5.87-1.65c2.73-1.15,5.64-2.76,6.55-5.59.62-1.94.13-4.05.38-6.08a1.7,1.7,0,0,1,.82-1.47c.45-.18,1,0,1.44,0a2,2,0,0,0,1.47-2.62,3.56,3.56,0,0,0-2.63-2.06"/><path class="cls-5" d="M81.79,213.25A25.87,25.87,0,0,0,77,216.93a8.81,8.81,0,0,0-2.6,5.36,1.8,1.8,0,0,0,.39,1.43,1.69,1.69,0,0,0,.74.38c2.1.57,4.22-.67,6-1.86,3-2,6.13-4,8.44-6.81.17-.2.34-.48.21-.72a.67.67,0,0,0-.39-.26c-2.14-.79-5.82-.66-8-1.2"/><path class="cls-24" d="M90.26,215.73a1.68,1.68,0,0,1-.19.31l-.59.84-.44.6-.56.68-.65.78-.79.83a21.86,21.86,0,0,1-4.35,3.54,17.76,17.76,0,0,1-3,1.45,13.7,13.7,0,0,1-3.5.75,9.42,9.42,0,0,1-1.84,0,2.64,2.64,0,0,1-.9-.29,1.39,1.39,0,0,1-.64-.75,2.86,2.86,0,0,1,.1-1.77,14.16,14.16,0,0,1,.53-1.55,10.56,10.56,0,0,1,1.66-2.53c.61-.72,1.22-1.34,1.79-1.9,1.14-1.12,2.11-2,2.78-2.55l.79-.66c.18-.15.28-.22.29-.21s-.07.1-.24.27-.41.41-.74.71c-.64.62-1.58,1.5-2.68,2.63-.55.57-1.15,1.2-1.74,1.92a10.44,10.44,0,0,0-1.58,2.47,12.72,12.72,0,0,0-.5,1.51,2.53,2.53,0,0,0-.1,1.53,1.45,1.45,0,0,0,1.24.79,10.18,10.18,0,0,0,1.75,0,13,13,0,0,0,3.4-.71,18.25,18.25,0,0,0,3-1.4,22.73,22.73,0,0,0,4.34-3.43l.79-.8.67-.76.59-.65.46-.58L90,216C90.16,215.81,90.24,215.72,90.26,215.73Z"/><path class="cls-24" d="M90.27,217.6s-.34.21-.89.66a8.3,8.3,0,0,0-1.86,2.34,27,27,0,0,0-1.72,4.14,20.52,20.52,0,0,1-1,2.47,9.08,9.08,0,0,1-1.68,2.37,8.59,8.59,0,0,1-4.15,2.06,2.4,2.4,0,0,1-1.47-.16,1.92,1.92,0,0,1-.93-1.06,2.84,2.84,0,0,1-.19-1.27,6.86,6.86,0,0,1,.64-2.09l.21.13a.89.89,0,0,1-.84.26,1.16,1.16,0,0,1-.66-.36,1.21,1.21,0,0,1-.23-1.13,1.64,1.64,0,0,1,.31-.64c.11-.13.18-.18.18-.17a3,3,0,0,0-.36.84,1.11,1.11,0,0,0,.24,1,1,1,0,0,0,.56.27A.66.66,0,0,0,77,227l.49-.58-.28.72a7,7,0,0,0-.55,2,2.36,2.36,0,0,0,.18,1.13,1.6,1.6,0,0,0,.78.86,2.12,2.12,0,0,0,1.26.12,7.49,7.49,0,0,0,1.36-.41,7,7,0,0,0,2.56-1.57A8.62,8.62,0,0,0,84.41,227a22.86,22.86,0,0,0,1-2.43,26.06,26.06,0,0,1,1.82-4.15,7.8,7.8,0,0,1,2-2.32,3.34,3.34,0,0,1,.4-.26,2,2,0,0,1,.31-.17C90.17,217.62,90.26,217.59,90.27,217.6Z"/><path class="cls-2" d="M79.27,231.9s-2,6,3,2.65,5.68-15.67,5.68-15.67S84.51,231.16,79.27,231.9Z"/><path class="cls-25" d="M98.5,289.67c0,.12-1.31.08-2.89.28s-2.84.53-2.87.42a6.59,6.59,0,0,1,2.82-.81A6.69,6.69,0,0,1,98.5,289.67Z"/><path class="cls-25" d="M99.32,287.59s-.26.29-.8.58a6.85,6.85,0,0,1-2.29.68,6.57,6.57,0,0,1-2.39-.14c-.6-.15-.93-.33-.92-.38a16.15,16.15,0,0,0,3.26.14A17.07,17.07,0,0,0,99.32,287.59Z"/><path class="cls-25" d="M75.77,285a5.15,5.15,0,0,1-2.93-3.92c.12,0,.47,1,1.28,2.1S75.84,284.89,75.77,285Z"/><path class="cls-25" d="M75.21,285.64c-.06,0-.14-.19-.42-.4s-.74-.46-1.23-.75a8.12,8.12,0,0,1-1.75-1.13,4.52,4.52,0,0,1,2,.79A5.51,5.51,0,0,1,75,285C75.27,285.35,75.26,285.65,75.21,285.64Z"/><path class="cls-25" d="M92.33,267.31a3.38,3.38,0,0,1-1.63-.24,29.42,29.42,0,0,1-3.57-1.64c-1.37-.69-2.6-1.33-3.48-1.81a7.12,7.12,0,0,1-1.39-.86,6.62,6.62,0,0,1,1.51.61c.92.42,2.16,1,3.53,1.71s2.58,1.37,3.5,1.73S92.33,267.25,92.33,267.31Z"/><polygon class="cls-17" points="228.39 119.91 228.51 122.91 226.33 123.24 226.25 119.93 228.39 119.91"/><path class="cls-16" d="M226.33,123.24s9-1.62,10.31-.48-10.47,2.08-10.47,2.08Z"/><polygon class="cls-17" points="234.9 103.5 233.36 106.08 231.36 105.17 233.09 102.35 234.9 103.5"/><path class="cls-16" d="M231.36,105.17s8.38,3.55,8.88,5.24-9.9-4-9.9-4Z"/><path class="cls-15" d="M231,31c3.54-2.18-1-4.06,3.17-3.85a4.46,4.46,0,0,0,2.74-.38,3.15,3.15,0,0,0,.95-3.31,6.79,6.79,0,0,0-6.26-5.21c-4-.11-7.42,3.32-11.39,3.12a18.84,18.84,0,0,1-4.4-1.12c-4.23-1.26-9.69-.59-11.79,3.3-.56,1-.83,2.23-1.45,3.24-1.76,2.86-5.62,3.42-8.44,5.24a10.44,10.44,0,0,0-4.65,9.59,5.61,5.61,0,0,0,2,4.07s4.27,5.45,13.95,0S231,31,231,31Z"/><path class="cls-5" d="M222.88,41.34c1.5-1.71,24.62,23.62,29.56,26.28s3.8,0,3.8,0l-9.9-11L227.29,35.22Z"/><path class="cls-14" d="M225.83,31.76A12.14,12.14,0,0,0,213,33.14l-.11.09c-6.37,5.09-14.4,15.09-12,32.23l22.47-2.66s-3.16-3.82.92-15.13c2.24-6.22,4.21-12,4.21-12Z"/><path class="cls-5" d="M213.82,39.94s1.91,20.19,9.52,22.86,21.34,2.66,21.34,2.66,1-1.4-13.53-4.89l-1.9-.44s-8.27-4.78-7.84-19.39a10.8,10.8,0,0,0-.11-2c-.33-2.15-1.37-6.47-4.4-6.07C212.89,33.23,213.82,39.94,213.82,39.94Z"/><path class="cls-18" d="M200.87,65.46S218,86,221.44,92.13s1.9,27.75,3.05,28.35,5.52,0,5.52,0l.27-16.44.18-8.61a32,32,0,0,0-2.09-12.09l-4.64-12.17s19,1.17,15.61,10.66c-4.18,11.93-8,21-8,21l3.81,1.53S253,81.84,248.87,71.94s-25.53-9.14-25.53-9.14Z"/><path class="cls-17" d="M237.91,26.31l-3,6.38a2.84,2.84,0,0,1-3.8,1.35l-.83-.4-1.42,1.59a2.71,2.71,0,0,1-3.83.23l-.68-.6a3.14,3.14,0,0,1-.26-4.43l7-7.88Z"/><path class="cls-15" d="M226.9,31.81s2.83.69,4.13-.85c0,0-1.46-3.85.05-3.86s1.6,2.93,1.6,2.93,1.07-3.1,1.9-3.42c0,0,3.7,3.27,5,.56a7.58,7.58,0,0,0-2.41-4c-2.21-2.2-6.6-1.05-6.6-1.05Z"/><path class="cls-5" d="M228.44,35.59s0,.15-.22.3a1.88,1.88,0,0,1-.94.36,7.53,7.53,0,0,1-1.46,0,2.32,2.32,0,0,1-.88-.26,2.38,2.38,0,0,1-.72-.66,5.23,5.23,0,0,1-.95-3.09,2.57,2.57,0,0,1,.26-1.31c.06,0,0,.51,0,1.3a5.56,5.56,0,0,0,1,2.87,2.15,2.15,0,0,0,.61.56,2,2,0,0,0,.72.24,9.51,9.51,0,0,0,1.39,0,2.21,2.21,0,0,0,.89-.2C228.33,35.67,228.41,35.57,228.44,35.59Z"/><path class="cls-5" d="M216.66,37.77a7.81,7.81,0,0,1-.55,1l-1.61,2.7a62.79,62.79,0,0,0-4.64,9.23,33,33,0,0,0-1.55,5.46,24.37,24.37,0,0,0-.42,4.61,22.38,22.38,0,0,0,.23,3.12,7.59,7.59,0,0,1,.15,1.14,1.33,1.33,0,0,1-.1-.28,7.6,7.6,0,0,1-.2-.84,17.33,17.33,0,0,1-.36-3.14,22.91,22.91,0,0,1,.35-4.67,29.34,29.34,0,0,1,1.53-5.53,53.61,53.61,0,0,1,4.77-9.24c.71-1.13,1.3-2,1.72-2.64A5.69,5.69,0,0,1,216.66,37.77Z"/><path class="cls-15" d="M222.39,30.23a9.46,9.46,0,0,0,4.51,1.58c2.4.07,3.94-10,3.94-10Z"/><path class="cls-26" d="M212.77,66.26a2.12,2.12,0,0,1,.14,1.06,6.36,6.36,0,0,1-.57,2.52,6.49,6.49,0,0,1-1.5,2.1c-.5.44-.87.63-.89.59s.27-.31.69-.79A8.34,8.34,0,0,0,212,69.68a8.47,8.47,0,0,0,.66-2.38A4.42,4.42,0,0,1,212.77,66.26Z"/><path class="cls-26" d="M213.07,74.35a3,3,0,0,1,.34.37l.93,1.12c.8,1,1.95,2.4,3.29,4.23a49.55,49.55,0,0,1,4.21,6.75,33.65,33.65,0,0,1,1.82,4.34,32.1,32.1,0,0,1,1.16,4.92,124.92,124.92,0,0,1,1.46,17.61c0,2.26,0,4.09-.07,5.35,0,.64-.05,1.12-.07,1.46a2.2,2.2,0,0,1-.06.5,2.81,2.81,0,0,1,0-.51V119c0-1.26,0-3.09-.06-5.35a139.8,139.8,0,0,0-1.56-17.54,31.79,31.79,0,0,0-1.15-4.87,32.21,32.21,0,0,0-1.78-4.3,51.36,51.36,0,0,0-4.11-6.75c-1.3-1.84-2.41-3.29-3.18-4.29l-.87-1.17C213.15,74.5,213.05,74.36,213.07,74.35Z"/><path class="cls-26" d="M223.13,68.78c.11,0,.23.57.48,1.23s.52,1.18.43,1.25-.54-.38-.8-1.11S223,68.78,223.13,68.78Z"/><path class="cls-26" d="M222.21,66.4c-.09.07-.69-.55-1.46-1.24s-1.46-1.23-1.4-1.32a3.62,3.62,0,0,1,1.66,1A3.71,3.71,0,0,1,222.21,66.4Z"/><path class="cls-26" d="M226.18,70.42a2.17,2.17,0,0,1,.44-.24,11.69,11.69,0,0,1,1.35-.56,14.16,14.16,0,0,1,5.28-.72,13.93,13.93,0,0,1,3.65.67,9.09,9.09,0,0,1,3.67,2.16,6,6,0,0,1,1.27,2,9,9,0,0,1,.52,2.37c.07.82.07,1.65.06,2.49s0,1.69-.13,2.55A18.12,18.12,0,0,1,241.1,86c-.59,1.53-1.27,2.94-1.89,4.29l-3.33,7.16c-1,2-1.71,3.69-2.3,4.8a12.6,12.6,0,0,1-.75,1.25,2.22,2.22,0,0,1-.31.4,2.24,2.24,0,0,1,.24-.44c.17-.29.4-.71.68-1.28.55-1.12,1.26-2.8,2.19-4.85s2-4.49,3.25-7.2c.61-1.35,1.29-2.76,1.86-4.26a18,18,0,0,0,1.16-4.81c.08-.84.12-1.68.13-2.52s0-1.65-.06-2.44a8.49,8.49,0,0,0-.48-2.27A5.48,5.48,0,0,0,240.31,72a8.68,8.68,0,0,0-3.51-2.11,13.82,13.82,0,0,0-3.56-.7,14.91,14.91,0,0,0-5.23.59C226.82,70.14,226.19,70.46,226.18,70.42Z"/><polygon class="cls-17" points="221.84 246.54 219.64 291.19 213.25 320.99 210.25 320.17 212.76 290.35 207.76 259.63 203.31 288.27 193.44 321.1 190.8 321.19 195.53 288.51 194.23 248.72 221.84 246.54"/><path class="cls-16" d="M231.26,171.56l-2.95,22.87-14.24,13.75-12.77.18-4.64,8.06,1.86,7.28a24.53,24.53,0,0,1-1.33,16l-3,9,27.91,3.21c.91-21.18.48-22.91-3-35l16.48-21.34,0-24.87Z"/><path class="cls-16" d="M219.46,170.76c-1.38.76-10.33,23.61-10.33,23.61l.52,14.61-8.35,1.52V193.75l14.58-25.67Z"/><path class="cls-17" d="M212.21,194.24l2.56,6.58a2.85,2.85,0,0,1-1.64,3.68l-.87.33.42,4.83-6.72.59-1.19-13.63Z"/><path class="cls-18" d="M208.5,206.67s2.57-2.24,2.35-4.24c0,0-3.8-1.58-2.76-2.69s3.22.85,3.22.85-1.51-2.91-1.18-3.73c0,0,4.93-.43,3.88-3.27a7.61,7.61,0,0,0-4.59-1c-3.12.1-4.37,5.48-4.37,5.48Z"/><path class="cls-18" d="M209.9,192.91a9.4,9.4,0,0,0-11.79,9.88c.18,2.1,1,4.3.23,6.24a7.55,7.55,0,0,1-2,2.5,42.91,42.91,0,0,0-6.57,6.84,12.48,12.48,0,0,0-2.49,8.93,7.36,7.36,0,0,0,1.61,3.65c.45.54,1,1,1.41,1.58,1.44,2.08.63,5,1.51,7.36,1.13,3,4.69,4.39,7.92,4.72,4.43.45,9.21-.49,12.47-3.51s4.48-8.42,2-12.1c-1.25-1.82-3.37-3.41-3.16-5.61.13-1.36,1.16-2.44,1.75-3.68a6.19,6.19,0,0,0-1.78-7.38c-.81-.61-1.76-1-2.51-1.7a2.45,2.45,0,0,1-.8-2.71c.35-.7,1.15-1.08,1.51-1.77.54-1-.12-2.28-.87-3.16s-1.7-1.75-1.81-2.91a4.71,4.71,0,0,1,.75-2.51l2.44-4.63"/><polygon class="cls-5" points="194.23 248.72 192.22 264.28 207.24 266.7 207.88 260.55 208.73 266.55 223.75 266.55 222.13 251.93 194.23 248.72"/><path class="cls-16" d="M191.07,319.84s9.11,0,10.23,1.34-10.67.2-10.67.2Z"/><path class="cls-16" d="M209.55,320.48s9-1.62,10.31-.47-10.47,2.07-10.47,2.07Z"/><path class="cls-25" d="M213.71,262.35c-.06.1-2.22-.92-5-2s-5-1.84-5-2a5.84,5.84,0,0,1,1.54.34c.93.27,2.2.69,3.58,1.24s2.59,1.12,3.46,1.56A6,6,0,0,1,213.71,262.35Z"/><path class="cls-25" d="M207.53,265.09a16.31,16.31,0,0,1-2.25-.42c-1.38-.29-3.29-.63-5.42-.92s-4.07-.51-5.47-.68a14.12,14.12,0,0,1-2.26-.35,12.9,12.9,0,0,1,2.29.07c1.41.11,3.35.28,5.49.57a53.14,53.14,0,0,1,5.44,1A10.89,10.89,0,0,1,207.53,265.09Z"/><path class="cls-25" d="M223.26,264.38a13,13,0,0,1-2.22.18c-1.37.07-3.26.17-5.34.3s-4,.27-5.34.37a15.44,15.44,0,0,1-2.23.09,12,12,0,0,1,2.2-.37c1.36-.17,3.25-.35,5.34-.48s4-.18,5.36-.18A11.32,11.32,0,0,1,223.26,264.38Z"/><path class="cls-25" d="M222.65,255.6s-.31.25-.92.35a4,4,0,0,1-2.37-.34,4.09,4.09,0,0,1-1.75-1.62,1.68,1.68,0,0,1-.31-.94c.06,0,.2.32.54.79a4.74,4.74,0,0,0,1.69,1.42,4.66,4.66,0,0,0,2.17.42C222.28,255.65,222.63,255.54,222.65,255.6Z"/><path class="cls-25" d="M221.76,266.94a37.5,37.5,0,0,1-.79-5.37,40.73,40.73,0,0,1-.4-5.41,35.88,35.88,0,0,1,.79,5.37A37,37,0,0,1,221.76,266.94Z"/><path class="cls-27" d="M195.72,289.44a5.74,5.74,0,0,1,1.81.4,5.61,5.61,0,0,1,1.76.58,3.75,3.75,0,0,1-1.87-.21A3.71,3.71,0,0,1,195.72,289.44Z"/><path class="cls-27" d="M199.56,289.2a3.48,3.48,0,0,1-2,.32,3.6,3.6,0,0,1-2-.44,9.63,9.63,0,0,1,2,.05A10,10,0,0,1,199.56,289.2Z"/><path class="cls-27" d="M217.25,289.74a3.82,3.82,0,0,1-1.8.55,3.91,3.91,0,0,1-1.89,0,5.59,5.59,0,0,1,1.83-.41A5.32,5.32,0,0,1,217.25,289.74Z"/><path class="cls-27" d="M216.28,288.86c0,.1-.47.39-1.12.68s-1.21.47-1.26.38.44-.45,1.1-.74S216.24,288.76,216.28,288.86Z"/><path class="cls-17" d="M218.7,170.76s3.93-2.11,3.87-2.37c-.17-.78-2.26.19-2.26.19s3.2-3.34,2.7-3.81c-.3-.29-2.26,1.41-2.26,1.41s1.24-2,.85-2.42-2.2,1.92-2.2,1.92.67-1.5.28-1.87-3.82,5.77-3.82,5.77Z"/><path class="cls-17" d="M231.9,171.61s-1.66-4.14-1.44-4.3c.62-.49,1.61,1.59,1.61,1.59s-.31-4.61.37-4.65c.41,0,.83,2.53.83,2.53s.32-2.32.9-2.4.46,2.88.46,2.88.44-1.58,1-1.61c.37,0-.78,6.88-.78,6.88Z"/><path class="cls-28" d="M143.71,267.9l10.28-25s28.5,9.6,28.2,10.2-12.44,25.4-12.44,25.4Z"/><path class="cls-25" d="M159,247s0,.07-.09.18l-.27.47c-.27.43-.62,1-1,1.73-.88,1.47-2.05,3.51-3.26,5.81s-2.22,4.43-2.93,6l-.84,1.84-.23.5-.09.17s0-.07,0-.19.12-.31.2-.51c.17-.45.44-1.08.78-1.87.68-1.56,1.68-3.7,2.89-6s2.4-4.34,3.31-5.79c.45-.73.82-1.31,1.09-1.7.12-.18.23-.33.31-.46A1.22,1.22,0,0,1,159,247Z"/><path class="cls-25" d="M172.68,254.09a.77.77,0,0,1-.17-.06l-.49-.19-1.76-.75c-1.48-.65-3.52-1.56-5.75-2.61s-4.24-2-5.69-2.77l-1.7-.88-.46-.25c-.1-.06-.15-.09-.15-.1l.17.07.47.21,1.73.82,5.71,2.72,5.73,2.66,1.74.81.46.23C172.63,254.05,172.69,254.08,172.68,254.09Z"/><path class="cls-25" d="M174.45,251.48a1.75,1.75,0,0,1-.11.24c-.09.16-.2.38-.34.65l-1.27,2.39c-1.08,2-2.58,4.8-4.15,7.92s-2.9,6-3.81,8.08c-.45,1.05-.81,1.9-1.05,2.49-.12.28-.21.51-.28.68l-.11.24s0-.09.07-.25.15-.41.25-.69c.22-.61.56-1.47,1-2.53.87-2.11,2.18-5,3.75-8.11s3.1-5.89,4.21-7.89l1.32-2.37.38-.63A.83.83,0,0,1,174.45,251.48Z"/><path class="cls-25" d="M173.72,256s-3.61-1.51-8-3.49-8-3.62-7.94-3.67,3.61,1.51,8,3.49S173.74,256,173.72,256Z"/><path class="cls-25" d="M160.9,253c0,.05-.7-.39-1.59-.78s-1.66-.6-1.65-.65a4.53,4.53,0,0,1,1.73.47A4.47,4.47,0,0,1,160.9,253Z"/><path class="cls-25" d="M160.31,253.53c0,.05-.71-.41-1.63-.79s-1.72-.54-1.71-.6a4.23,4.23,0,0,1,1.79.42A4.46,4.46,0,0,1,160.31,253.53Z"/><path class="cls-25" d="M160.09,254.44s-.74-.37-1.64-.81-1.65-.75-1.63-.8a5.62,5.62,0,0,1,1.72.62A5.79,5.79,0,0,1,160.09,254.44Z"/><path class="cls-25" d="M163.41,253.12a.5.5,0,0,1,.21-.09,1.13,1.13,0,0,1,.62,0,.82.82,0,0,1,.65.68.7.7,0,0,1-.17.56,1.14,1.14,0,0,1-.49.37,1.1,1.1,0,0,1-.62.06,1,1,0,0,1-.5-.3.83.83,0,0,1-.16-.92.79.79,0,0,1,.48-.41c.15,0,.23,0,.23,0a2,2,0,0,0-.21.07.73.73,0,0,0-.37.4.68.68,0,0,0,.17.74.87.87,0,0,0,1.46-.55.71.71,0,0,0-.5-.57,1.52,1.52,0,0,0-.58,0C163.49,253.12,163.42,253.14,163.41,253.12Z"/><path class="cls-25" d="M168.86,255.92a7.7,7.7,0,0,1-1.89-.64,8,8,0,0,1-1.78-.94,13.74,13.74,0,0,1,1.85.76A14.42,14.42,0,0,1,168.86,255.92Z"/><path class="cls-25" d="M166.49,255.67a1.72,1.72,0,0,1-.91-.25,1.78,1.78,0,0,1-.76-.55,3.42,3.42,0,0,1,.85.38A3.78,3.78,0,0,1,166.49,255.67Z"/><path class="cls-25" d="M160.31,259.48l.14,0,.37.14,1.4.53,4.84,1.89-.11,0,2.53-4.29.09-.15.05.14-6.7-2.43.1,0-2.71,4.11a7.79,7.79,0,0,1,.65-1.16c.45-.73,1.11-1.77,1.93-3l0-.06.06,0,6.7,2.39.11,0-.06.1-.08.15-2.54,4.28,0,.06-.07,0-4.86-2-1.37-.57-.35-.15C160.34,259.51,160.3,259.49,160.31,259.48Z"/><path class="cls-25" d="M158.74,260.88s.06-.06.21-.1a1.12,1.12,0,0,1,.62,0,.86.86,0,0,1,.65.68.71.71,0,0,1-.17.56,1.14,1.14,0,0,1-.49.37,1.11,1.11,0,0,1-.62.06,1,1,0,0,1-.5-.29.81.81,0,0,1-.16-.92.75.75,0,0,1,.48-.42c.15,0,.23,0,.23,0s-.08,0-.21.07a.78.78,0,0,0-.38.4.71.71,0,0,0,.17.74.83.83,0,0,0,.92.18.79.79,0,0,0,.55-.73.73.73,0,0,0-.5-.57,1.32,1.32,0,0,0-.58,0Z"/><path class="cls-25" d="M164.19,263.68a8.61,8.61,0,0,1-1.89-.65,8,8,0,0,1-1.78-.94,15.54,15.54,0,0,1,1.85.76A13.61,13.61,0,0,1,164.19,263.68Z"/><path class="cls-25" d="M161.82,263.43a1.82,1.82,0,0,1-.91-.25,1.76,1.76,0,0,1-.76-.56,3.42,3.42,0,0,1,.85.38C161.45,263.22,161.84,263.37,161.82,263.43Z"/><path class="cls-25" d="M155.64,267.24l.13,0,.38.14,1.4.53,4.84,1.89-.11,0,2.53-4.29.08-.15.05.15-6.69-2.43.1,0c-1.54,2.33-2.39,3.61-2.71,4.11a6.57,6.57,0,0,1,.65-1.17c.45-.73,1.11-1.77,1.92-3l0-.05.06,0,6.7,2.39.11,0-.06.1-.08.15L162.44,270l0,.07-.07,0-4.86-2-1.37-.57-.35-.16Z"/><path class="cls-25" d="M176.42,253.34c.05,0-2.15,4.48-4.92,10s-5.06,9.87-5.11,9.85,2.16-4.48,4.93-9.94S176.38,253.32,176.42,253.34Z"/><path class="cls-25" d="M177.68,257.53a20.14,20.14,0,0,1-2.6-.8,20.6,20.6,0,0,1-2.54-1,19.5,19.5,0,0,1,2.61.8A19.29,19.29,0,0,1,177.68,257.53Z"/><path class="cls-25" d="M175.47,258.86a7,7,0,0,1-.81-1.93,7.14,7.14,0,0,1-.42-2.06c.06,0,.26.9.6,2S175.52,258.84,175.47,258.86Z"/><path class="cls-25" d="M174,261.89a2,2,0,0,1,0-.88,2.32,2.32,0,0,1,.16-.88,2,2,0,0,1,0,.89A2.18,2.18,0,0,1,174,261.89Z"/><path class="cls-25" d="M175.31,261a5.45,5.45,0,0,1-1,.1,4.76,4.76,0,0,1-1,.13,1.85,1.85,0,0,1,1-.32A1.79,1.79,0,0,1,175.31,261Z"/><path class="cls-25" d="M154.67,247.6a13.26,13.26,0,0,1,1.63.75,13.92,13.92,0,0,1,1.61.78,5.87,5.87,0,0,1-1.7-.6A5.51,5.51,0,0,1,154.67,247.6Z"/><path class="cls-25" d="M157.71,244.51a20.83,20.83,0,0,1-1.39,2.67,21.14,21.14,0,0,1-1.56,2.57,22.86,22.86,0,0,1,1.39-2.66A27,27,0,0,1,157.71,244.51Z"/><path class="cls-25" d="M155.18,247.19c-.05,0-.12-.29-.16-.65s0-.67,0-.68.12.29.16.66S155.23,247.19,155.18,247.19Z"/><path class="cls-25" d="M156.49,246.4a3,3,0,0,1-1.07.32,3.15,3.15,0,0,1-1.11.11,3.39,3.39,0,0,1,1.07-.31A3.31,3.31,0,0,1,156.49,246.4Z"/><path class="cls-17" d="M172.16,266.82s1.27-4.28,1.55-4.27c.79,0,.27,2.25.27,2.25s2.62-3.8,3.18-3.42c.34.24-.93,2.5-.93,2.5s1.7-1.61,2.2-1.32-1.43,2.55-1.43,2.55,1.33-1,1.77-.66-4.88,4.91-4.88,4.91Z"/><path class="cls-17" d="M172.16,266.82s1.27-4.28,1.55-4.27c.79,0,.27,2.25.27,2.25s2.62-3.8,3.18-3.42c.34.24-.93,2.5-.93,2.5s1.7-1.61,2.2-1.32-1.43,2.55-1.43,2.55,1.33-1,1.77-.66-4.88,4.91-4.88,4.91Z"/><polygon class="cls-17" points="144.88 362.85 145 365.85 142.82 366.18 142.74 362.87 144.88 362.85"/><path class="cls-16" d="M142.82,366.18s9-1.62,10.31-.48-10.47,2.08-10.47,2.08Z"/><polygon class="cls-17" points="113.5 352.29 110.99 353.96 109.58 352.27 112.36 350.48 113.5 352.29"/><path class="cls-16" d="M109.58,352.27s6,6.81,5.76,8.56-7.22-7.87-7.22-7.87Z"/><path class="cls-16" d="M148.42,288.16s7.53,6.95,7.66,32.72-8.87,42.88-8.87,42.88h-6.33s10.39-32.37-1.29-53.83A84.07,84.07,0,0,1,115,354.06l-5-5.32s15.26-19.17,15.38-43.14c0-4.75.82-7.15-.83-12.46Z"/><path class="cls-29" d="M151.57,334.26c0,.11-1.32.08-2.9.27s-2.84.53-2.87.43a9.16,9.16,0,0,1,5.77-.7Z"/><path class="cls-29" d="M152.39,332.17s-.26.3-.81.58a6.61,6.61,0,0,1-2.29.69,6.8,6.8,0,0,1-2.39-.14c-.59-.16-.93-.34-.91-.38a17.37,17.37,0,0,0,3.25.13A17.65,17.65,0,0,0,152.39,332.17Z"/><path class="cls-29" d="M128.83,329.57a5.11,5.11,0,0,1-2.92-3.93c.11,0,.46,1,1.27,2.1S128.9,329.47,128.83,329.57Z"/><path class="cls-29" d="M128.27,330.23c-.06,0-.13-.2-.42-.41s-.74-.45-1.23-.75a8.12,8.12,0,0,1-1.75-1.13,4.42,4.42,0,0,1,1.95.8,5.84,5.84,0,0,1,1.22.88C128.33,329.93,128.32,330.23,128.27,330.23Z"/><path class="cls-29" d="M145.39,311.89a3.2,3.2,0,0,1-1.62-.24,29.21,29.21,0,0,1-3.58-1.63c-1.37-.69-2.6-1.34-3.48-1.82a6.85,6.85,0,0,1-1.39-.85,6.4,6.4,0,0,1,1.52.6c.91.42,2.16,1,3.52,1.72s2.58,1.36,3.5,1.72S145.4,311.83,145.39,311.89Z"/><path class="cls-18" d="M120.47,263.28l4.4,34.11,27.71.35-4.14-25.69s13.69,13,19.67,7.61,6.94-10.75,6.94-10.75l-3.26-2.23s-4.94,9.42-9.44,6.46c-5.06-3.34-16.36-16.94-27-15.25C128.26,259,121.56,255.05,120.47,263.28Z"/><path class="cls-17" d="M136.82,243.05l2.55,6.59a2.83,2.83,0,0,1-1.63,3.67l-.87.33.42,4.83-6.73.59-1.18-13.63Z"/><path class="cls-5" d="M133.11,255.48s2.57-2.24,2.35-4.24c0,0-3.8-1.58-2.77-2.69s3.23.85,3.23.85-1.51-2.91-1.18-3.73c0,0,4.93-.43,3.88-3.27a7.61,7.61,0,0,0-4.59-1c-3.12.1-4.37,5.48-4.37,5.48Z"/><path class="cls-5" d="M134.51,241.72a9.4,9.4,0,0,0-11.79,9.88c.18,2.11,1,4.3.23,6.24a7.67,7.67,0,0,1-2,2.5,43.42,43.42,0,0,0-6.58,6.84,12.52,12.52,0,0,0-2.48,8.93,7.44,7.44,0,0,0,1.6,3.65,21,21,0,0,1,1.41,1.58c1.44,2.08.64,5,1.52,7.36,1.13,3,4.69,4.4,7.92,4.72,4.43.45,9.2-.49,12.47-3.51s4.48-8.42,2-12.1c-1.24-1.82-3.36-3.41-3.15-5.61.13-1.36,1.16-2.44,1.75-3.68a6.21,6.21,0,0,0-1.78-7.38c-.81-.61-1.76-1-2.51-1.7a2.43,2.43,0,0,1-.8-2.71c.34-.7,1.15-1.08,1.51-1.77.54-1-.12-2.28-.88-3.16s-1.69-1.75-1.8-2.91a4.57,4.57,0,0,1,.75-2.5l2.44-4.64"/><path class="cls-14" d="M292.83,49.61h94.5s-5-25.84-30-19.56c0,0-18.55-52.29-36.66,0,0,0-15.54-25.91-27.82-26.07C266.3,3.63,258.53,49.61,292.83,49.61Z"/><path class="cls-30" d="M37.79,297.25c-9.81,7.45-25.71.67-34.52-7a9.31,9.31,0,0,1-3.09-5.08c-2-9.55,13.09-11.9,13.53-20.46.2-3.75-2.63-6.86-4.71-10-4.75-7.13-6.09-16.14-5.09-24.65s4.2-16.61,7.91-24.33c3-6.31,8.46-13.45,15.3-11.93,4.39,1,7.21,5.34,8.49,9.66,1.76,5.94,1.51,12.31.33,18.39-.53,2.69-1.23,5.49-.5,8.13,1.85,6.77,11.35,8.31,14.8,14.42s-.68,13.81-4.55,19.82c-3.32,5.14-5.35,8.33-3.18,12.72a9.74,9.74,0,0,0,2.41,3C47,281.81,50.92,287.3,37.79,297.25Z"/><path class="cls-25" d="M26.63,320.87c-.11,0-.2-17.86-.2-39.89s.09-39.9.2-39.9.2,17.86.2,39.9S26.74,320.87,26.63,320.87Z"/><path class="cls-25" d="M25.34,292.39a3.22,3.22,0,0,1-.63-.45l-1.66-1.32c-1.39-1.12-3.31-2.66-5.47-4.33s-4.14-3.12-5.58-4.18l-1.7-1.26a2.92,2.92,0,0,1-.6-.5,3.1,3.1,0,0,1,.68.37c.43.27,1,.66,1.78,1.16,1.48,1,3.5,2.44,5.66,4.1s4.07,3.25,5.41,4.43c.68.59,1.21,1.07,1.58,1.42S25.36,292.37,25.34,292.39Z"/><path class="cls-25" d="M37.45,250.42a22.38,22.38,0,0,1-1.67,2.16l-4.17,5.11-4.13,5.15a18.53,18.53,0,0,1-1.77,2.08,3,3,0,0,1,.39-.63c.26-.39.66-.94,1.16-1.62,1-1.37,2.43-3.22,4-5.22s3.13-3.78,4.25-5c.56-.63,1-1.13,1.35-1.48S37.43,250.4,37.45,250.42Z"/><g class="cls-31"><path class="cls-32" d="M410.09,9.85a16.43,16.43,0,0,1,2-.63l5.7-1.66c4.9-1.41,11.93-3.41,20.2-5.68l.42-.11.11.41c1.34,4.92,2.81,10.3,4.34,15.93l-.33.57h-.05l-.07,0-.12,0-.25.07-.5.13-1,.27-2,.53-3.86,1-7.36,2-12.8,3.38-.35.09-.09-.34c-1.23-4.86-2.25-8.86-3-11.79-.31-1.29-.57-2.33-.77-3.17a6.34,6.34,0,0,1-.21-1.07,8.72,8.72,0,0,1,.4,1.16l.95,3.2c.83,2.86,1.95,6.76,3.3,11.49l-.43-.25,12.76-3.53,7.35-2,3.86-1.05,2-.54,1-.27.5-.13.25-.07.12,0,.06,0h.06l-.32.56c-1.51-5.64-3-11-4.28-15.94l.53.3c-8.11,2.16-15.07,3.94-20,5.2l-5.85,1.46A17.23,17.23,0,0,1,410.09,9.85Z"/><path class="cls-32" d="M438.06,2.29a27.6,27.6,0,0,1-3.12,4.05c-2,2.42-4.84,5.73-8,9.34-1,.27-.28.07-.5.13h-.05l-.05,0-.11,0-.21-.07-.42-.14-.84-.28-1.64-.56L420,13.63l-5.21-1.85a27.08,27.08,0,0,1-4.73-1.93A28.19,28.19,0,0,1,415,11.16l5.27,1.66,3.11,1,1.64.55.84.28.42.14.21.07.11,0,.05,0h.05l-.49.13c3.17-3.61,6.08-6.85,8.21-9.16A28.33,28.33,0,0,1,438.06,2.29Z"/><path class="cls-33" d="M441.65,2.26A3.06,3.06,0,1,1,437.9.11,3.06,3.06,0,0,1,441.65,2.26Z"/></g><g class="cls-31"><path class="cls-32" d="M32.05,88.9a15.38,15.38,0,0,1,1.94.42l5.58,1.39c4.79,1.22,11.65,3,19.69,5.12l.4.11-.11.4c-1.28,4.77-2.68,10-4.14,15.45l-.56.32h-.11l-.12,0-.25-.06-.48-.13-1-.26L51,111.07l-3.75-1-7.12-2-12.37-3.42-.34-.1.1-.32,3.25-11.34.91-3a4.65,4.65,0,0,1,.35-1,8.36,8.36,0,0,1-.24,1.16l-.76,3.15c-.71,2.79-1.67,6.6-2.85,11.23L28,104l12.41,3.28,7.13,1.91,3.75,1,1.91.51,1,.26.49.13.24.07.12,0,.06,0h0c.5-.28-.66.39-.54.32l4.21-15.44.29.51C51.2,94.48,44.5,92.57,39.72,91.2l-5.61-1.64A20.35,20.35,0,0,1,32.05,88.9Z"/><path class="cls-32" d="M59.15,96.23a26.93,26.93,0,0,1-4.58,1.87c-2.87,1-6.85,2.43-11.27,3.91-1-.26-.26-.08-.48-.14h0l0,0,0,0-.07-.09-.14-.16-.29-.33-.56-.64-1.1-1.26-2.07-2.4-3.46-4.1a27.27,27.27,0,0,1-3-3.92,27,27,0,0,1,3.49,3.51l3.61,4c.67.77,1.38,1.55,2.1,2.37L42.36,100l.57.65.28.32.14.16.08.09,0,0,0,0h0c-.21,0,.48.14-.47-.12,4.41-1.48,8.43-2.77,11.35-3.66A27.19,27.19,0,0,1,59.15,96.23Z"/></g><path class="cls-6" d="M456.11,122.35a36.06,36.06,0,0,0-.88-5.83,23,23,0,0,0-2.68-6.34A23.79,23.79,0,0,0,424,100.07a22.55,22.55,0,0,0-6,3.23,30.45,30.45,0,0,0-2.69,2.29,29.31,29.31,0,0,0-2.32,2.75,23.61,23.61,0,0,0,0,28,27.87,27.87,0,0,0,2.32,2.75A28.72,28.72,0,0,0,418,141.4a22.31,22.31,0,0,0,6,3.24,23.83,23.83,0,0,0,12.47,1.05,24,24,0,0,0,16.09-11.16,23,23,0,0,0,2.68-6.34,35.92,35.92,0,0,0,.88-5.84,1.73,1.73,0,0,1,0,.39c0,.3,0,.68,0,1.15a11.31,11.31,0,0,1-.15,1.86,17.83,17.83,0,0,1-.46,2.51,23,23,0,0,1-2.61,6.47,24.21,24.21,0,0,1-29.1,10.5,22.91,22.91,0,0,1-6.17-3.31,25.41,25.41,0,0,1-2.77-2.34,27.23,27.23,0,0,1-2.4-2.82,24.2,24.2,0,0,1,0-28.81,27.15,27.15,0,0,1,2.39-2.82,27.78,27.78,0,0,1,2.77-2.35,23.16,23.16,0,0,1,6.17-3.3,24.36,24.36,0,0,1,12.78-1,23.91,23.91,0,0,1,10.2,4.59,24.16,24.16,0,0,1,6.12,6.92,22.91,22.91,0,0,1,2.61,6.47A17.83,17.83,0,0,1,456,119a11.31,11.31,0,0,1,.15,1.86q0,.71,0,1.14A1.65,1.65,0,0,1,456.11,122.35Z"/><path class="cls-6" d="M457.85,122.35a1.91,1.91,0,0,1-.05-.41c0-.31-.06-.72-.1-1.22a13,13,0,0,0-.23-2,19.66,19.66,0,0,0-.55-2.65,24.38,24.38,0,0,0-2.88-6.8,25.54,25.54,0,0,0-30.65-10.86A24.41,24.41,0,0,0,417,101.9a28.83,28.83,0,0,0-2.88,2.46,29.5,29.5,0,0,0-2.5,3,25.58,25.58,0,0,0-4.94,15,27,27,0,0,0,1.31,8,24.88,24.88,0,0,0,3.63,7,29.5,29.5,0,0,0,2.5,2.95A28.92,28.92,0,0,0,417,142.8a24,24,0,0,0,6.44,3.48,25.61,25.61,0,0,0,30.66-10.86,24.62,24.62,0,0,0,2.87-6.8,19.66,19.66,0,0,0,.55-2.65,13,13,0,0,0,.23-2c0-.5.07-.91.1-1.22a2.1,2.1,0,0,1,.05-.42,2,2,0,0,1,0,.42c0,.32,0,.72,0,1.23a13.31,13.31,0,0,1-.17,2,17.73,17.73,0,0,1-.5,2.69,24.32,24.32,0,0,1-2.8,6.94A26,26,0,0,1,436.88,148a26.09,26.09,0,0,1-13.7-1.1,23.91,23.91,0,0,1-6.61-3.54,28,28,0,0,1-3-2.51,29.79,29.79,0,0,1-2.56-3,25.16,25.16,0,0,1-3.74-7.2,27.72,27.72,0,0,1-1.35-8.24A26.18,26.18,0,0,1,411,106.92a29.79,29.79,0,0,1,2.56-3,30.47,30.47,0,0,1,3-2.52,24.29,24.29,0,0,1,6.61-3.53,26.09,26.09,0,0,1,13.7-1.1,26,26,0,0,1,17.49,12.34,24.21,24.21,0,0,1,2.8,6.94,17.85,17.85,0,0,1,.5,2.68,13.54,13.54,0,0,1,.17,2c0,.51,0,.91,0,1.23A1.85,1.85,0,0,1,457.85,122.35Z"/><path class="cls-6" d="M432.07,103.3c-.18,0-.34-1.11-.34-2.49s.16-2.49.34-2.49.34,1.11.34,2.49S432.26,103.3,432.07,103.3Z"/><path class="cls-6" d="M418.76,108.68c-.15.12-1-.64-1.85-1.71s-1.48-2-1.33-2.13,1,.64,1.85,1.7S418.9,108.56,418.76,108.68Z"/><path class="cls-6" d="M449,139c-.14.12-1-.64-1.85-1.7s-1.47-2-1.33-2.14,1,.65,1.85,1.71S449.18,138.84,449,139Z"/><path class="cls-6" d="M451.12,122.35c0-.18,1.12-.33,2.5-.33s2.49.15,2.49.33-1.11.34-2.49.34S451.12,122.54,451.12,122.35Z"/><path class="cls-6" d="M407.92,122.35c0-.18,1.12-.33,2.5-.33s2.49.15,2.49.33-1.12.34-2.49.34S407.92,122.54,407.92,122.35Z"/><path class="cls-6" d="M432.07,146.39c-.18,0-.34-1.11-.34-2.49s.16-2.49.34-2.49.34,1.11.34,2.49S432.26,146.39,432.07,146.39Z"/><path class="cls-6" d="M417.5,134.55c.12.15-.65,1-1.71,1.85s-2,1.48-2.13,1.33.64-1,1.7-1.85S417.38,134.41,417.5,134.55Z"/><path class="cls-6" d="M449.36,105.17c.12.14-.64,1-1.7,1.85s-2,1.47-2.14,1.33.64-1,1.71-1.85S449.24,105,449.36,105.17Z"/><path class="cls-6" d="M441.47,126.34a15.39,15.39,0,0,1-3.07.21c-1.92.06-4.62.1-7.71.12h-.33v-.33c0-1,0-2.08,0-3.18,0-3.86,0-7.35.1-9.88a24.75,24.75,0,0,1,.24-4.09,24.75,24.75,0,0,1,.24,4.09c.06,2.53.1,6,.1,9.88,0,1.1,0,2.16,0,3.18l-.33-.33c3.09,0,5.79.06,7.71.12A16.4,16.4,0,0,1,441.47,126.34Z"/><g class="cls-31"><path class="cls-32" d="M141.51,24.76a9.62,9.62,0,0,0-1.56.35A4.8,4.8,0,0,0,137,28.2a10.85,10.85,0,0,0-.19,3.15q0,1.76,0,3.78a19.87,19.87,0,0,0,.07,2,4.69,4.69,0,0,0,.75,1.93,4.64,4.64,0,0,0,3.81,2h.27v.29c0,1.23,0,2.55,0,3.91l-.48-.22,4.56-3.93.09-.07h10.25a6.47,6.47,0,0,0,1.94-.18,4.57,4.57,0,0,0,2.78-2.34,4.5,4.5,0,0,0,.46-1.75c0-.6,0-1.26,0-1.88,0-1.26,0-2.49,0-3.69a8.51,8.51,0,0,0-.33-3.36,4.74,4.74,0,0,0-2-2.29,5.41,5.41,0,0,0-2.87-.57l-2.86,0-8.6-.1-2.34-.06a4.29,4.29,0,0,1-.81-.06,4.29,4.29,0,0,1,.81-.06l2.34-.06,8.6-.1,2.86,0a5.82,5.82,0,0,1,3.11.6,5.19,5.19,0,0,1,2.31,2.53,5.3,5.3,0,0,1,.39,1.78c0,.6,0,1.18,0,1.79,0,1.2,0,2.43,0,3.69,0,.63,0,1.24,0,1.92a5.11,5.11,0,0,1-.52,2,5.16,5.16,0,0,1-3.15,2.66,6.92,6.92,0,0,1-2.11.21H146l.2-.07-4.58,3.91-.49.41v-.64c0-1.35.05-2.68.07-3.91l.28.28a5.1,5.1,0,0,1-5-4.41,19,19,0,0,1,0-2.11q0-2,0-3.78a11.38,11.38,0,0,1,.26-3.25A4.92,4.92,0,0,1,139.9,25,3.61,3.61,0,0,1,141.51,24.76Z"/></g></g></g></svg>